<?xml version="1.0" encoding="UTF-8" standalone="no"?>
<!-- Created with Inkscape (http://www.inkscape.org/) -->

<svg
   xmlns:dc="http://purl.org/dc/elements/1.1/"
   xmlns:cc="http://creativecommons.org/ns#"
   xmlns:rdf="http://www.w3.org/1999/02/22-rdf-syntax-ns#"
   xmlns:svg="http://www.w3.org/2000/svg"
   xmlns="http://www.w3.org/2000/svg"
   xmlns:sodipodi="http://sodipodi.sourceforge.net/DTD/sodipodi-0.dtd"
   xmlns:inkscape="http://www.inkscape.org/namespaces/inkscape"
   width="64px"
   height="64px"
   id="svg3446"
   version="1.1"
   inkscape:version="0.47 r22583"
   sodipodi:docname="New document 2">
  <defs
     id="defs3448">
    <inkscape:perspective
       sodipodi:type="inkscape:persp3d"
       inkscape:vp_x="0 : 32 : 1"
       inkscape:vp_y="0 : 1000 : 0"
       inkscape:vp_z="64 : 32 : 1"
       inkscape:persp3d-origin="32 : 21.333333 : 1"
       id="perspective3454" />
    <inkscape:perspective
       id="perspective3441"
       inkscape:persp3d-origin="0.5 : 0.33333333 : 1"
       inkscape:vp_z="1 : 0.5 : 1"
       inkscape:vp_y="0 : 1000 : 0"
       inkscape:vp_x="0 : 0.5 : 1"
       sodipodi:type="inkscape:persp3d" />
  </defs>
  <sodipodi:namedview
     id="base"
     pagecolor="#ffffff"
     bordercolor="#666666"
     borderopacity="1.0"
     inkscape:pageopacity="0.0"
     inkscape:pageshadow="2"
     inkscape:zoom="1"
     inkscape:cx="-184.74632"
     inkscape:cy="33.483092"
     inkscape:current-layer="layer1"
     showgrid="true"
     inkscape:document-units="px"
     inkscape:grid-bbox="true"
     inkscape:window-width="1438"
     inkscape:window-height="849"
     inkscape:window-x="0"
     inkscape:window-y="24"
     inkscape:window-maximized="1" />
  <metadata
     id="metadata3451">
    <rdf:RDF>
      <cc:Work
         rdf:about="">
        <dc:format>image/svg+xml</dc:format>
        <dc:type
           rdf:resource="http://purl.org/dc/dcmitype/StillImage" />
        <dc:title></dc:title>
      </cc:Work>
    </rdf:RDF>
  </metadata>
  <g
     id="layer1"
     inkscape:label="Layer 1"
     inkscape:groupmode="layer">
    <path
       d="m 34.118059,6.262444 c -15.078825,0 -27.2996147,11.63645 -27.2996147,25.988762 0,3.917783 0.9105909,7.633051 2.5423936,10.96469 L 2.7808748,54.570802 15.85086,51.560225 c 4.83747,4.150758 11.241022,6.680565 18.267199,6.680565 15.077104,0 27.299611,-11.635627 27.299611,-25.989584 0,-14.352312 -12.223382,-25.988762 -27.299611,-25.988762 z m 12.46638,39.123505 c 0,1.12701 -0.422853,2.092667 -1.267734,2.897793 -1.018686,0.790308 -2.434298,1.075148 -4.089451,1.053744 -2.474078,0 -6.460625,0.334234 -10.403068,-0.405034 -1.430311,-0.268375 -3.459041,-1.46042 -4.271048,-2.002111 -3.082009,-2.053152 -5.148782,-5.634233 -5.148782,-9.361848 l 0,-16.370887 c 0.07264,-2.486177 1.843666,-4.05362 4.161223,-4.107131 1.183854,0 2.199089,0.40421 3.04482,1.208513 0.845735,0.805125 1.268603,1.771604 1.268603,2.898618 l 0,4.104659 12.259708,0 c 5.812045,0 6.299773,8.010093 0,8.010093 l -12.312455,0 0,4.256958 c 0.551717,3.327524 3.146864,3.796768 5.884692,3.652701 2.359066,0.128426 4.844391,0.05763 5.444535,0.05763 3.036169,-0.377043 5.298391,0.995292 5.428957,4.106304 l 0,0 z"
       id="path295"
       style="fill:#00aeef" />
  </g>
</svg>
